<svg viewBox="0 0 375 812" xmlns="http://www.w3.org/2000/svg"
    xmlns:xlink="http://www.w3.org/1999/xlink">
    <clipPath id="a">
        <path d="m0 0h375v812h-375z" />
    </clipPath>
    <linearGradient id="b" gradientTransform="matrix(1 0 0 -1 0 812)" gradientUnits="userSpaceOnUse"
        x1="43.91" x2="81.01" y1="523.15" y2="320.62">
        <stop offset="0" stop-color="#231c5e" />
        <stop offset="1" stop-color="#04023f" />
    </linearGradient>
    <mask id="c" height="729.25" maskUnits="userSpaceOnUse" width="622.13" x="-254.22" y="-10.85">
        <path
            d="m63.89-5a225.76 225.76 0 0 1 -2.75 24.77c-.35 2.15-3 20.83-3 29 0 64 42.37 115.77 94.76 115.77a99.4 99.4 0 0 0 19.16-2.36l1.38-.3c3.75-1 7.57-1.81 11.42-2.51.31-.06.6-.18.91-.23s.46 0 .68-.07a134 134 0 0 1 13.79-1.57c2.63-.26 5.07-.43 7.21-.45.36 0 .71-.06 1.07-.06h.1.28a129.48 129.48 0 0 1 19.47 1.64c1.67.25 3.32.53 5 .84 1.1.21 2.17.46 3.25.69 3.9.85 7.72 1.91 11.52 3.1 2 .63 4 1.17 6 1.89 1.47.54 2.91 1.13 4.36 1.71 1.11.45 2.17 1 3.26 1.47 3.14 1.35 6.29 2.66 9.34 4.25 1.92 1 3.73 2.2 5.61 3.3 1.65.95 3.31 1.87 4.93 2.89.51.33 1 .59 1.54.92 1.57 1 3.07 2.14 4.6 3.21 2.25 1.58 4.45 3.21 6.62 4.91 2.69 2.11 5.3 4.35 7.88 6.65.91.81 1.83 1.61 2.72 2.45 1.51 1.4 3.07 2.7 4.53 4.17a176.9 176.9 0 0 1 12.75 14.34l.3.33c1.44 1.82 2.75 3.75 4.14 5.63q4.31 5.85 8.24 12.09c1.07 1.71 2.19 3.36 3.21 5.11.26.44.49.91.74 1.35a206.47 206.47 0 0 1 11.6 23.64c.54 1.31 1 2.64 1.56 4 1.4 3.55 2.79 7.1 4 10.77.72 2.17 1.32 4.41 2 6.63 1.37 4.58 2.63 9.2 3.72 13.93.63 2.76 1.21 5.53 1.75 8.34.69 3.57 1.28 7.17 1.8 10.81.3 2.11.65 4.18.9 6.31.2 1.71.37 3.41.53 5.14.53 5.75.79 11.59.91 17.48 0 1.56.24 3.06.24 4.61 0 1.43-.2 2.8-.22 4.22-.11 6.09-.39 12.12-.94 18.06-.16 1.66-.33 3.31-.52 4.95-.24 2.07-.57 4.08-.87 6.12q-.81 5.78-1.89 11.42c-.49 2.54-1 5.05-1.59 7.55-1.18 5.18-2.55 10.25-4.07 15.25-.54 1.77-1 3.58-1.6 5.33-1.32 4-2.82 7.88-4.35 11.75-.39 1-.75 1.95-1.16 2.92a206.7 206.7 0 0 1 -12.05 24.58l-.48.83c-.84 1.43-1.73 2.8-2.6 4.2q-4.58 7.42-9.72 14.23c-1 1.39-2 2.82-3.11 4.17a176.45 176.45 0 0 1 -13.75 15.45c-1 1-2 1.79-3 2.71-.48.46-1 .89-1.46 1.34l-1.54 1.47c-3.08 2.78-6.24 5.45-9.49 8-1.58 1.22-3.17 2.4-4.79 3.55a152.52 152.52 0 0 1 -14.25 9c-.92.51-1.78 1.1-2.71 1.59-3.69 2-7.49 3.62-11.33 5.24-.4.17-.79.37-1.2.54-2 .8-3.93 1.59-5.94 2.3-1.11.4-2.25.7-3.37 1.06a130.06 130.06 0 0 1 -14.18 3.83c-.72.15-1.44.27-2.16.4l-.48.09c-1.24.24-2.46.5-3.71.7a132.16 132.16 0 0 1 -20.86 1.85c-1.52 0-3-.22-4.5-.27h-.6a131.7 131.7 0 0 1 -31-4.91l-.33-.07a100.19 100.19 0 0 0 -19.16-2.36c-52.39 0-94.76 51.76-94.76 115.77 0 8.16 2.64 26.85 3 29a233.9 233.9 0 0 1 3.13 35h-318.53c1.62-105.76 72.3-190.75 159.22-190.54a131.4 131.4 0 0 1 32 3.87c7.1 1.42 17.75 3.65 24.26 3.86 52.21-.21 94.58-52 94.75-115.77a138.13 138.13 0 0 0 -1.19-17.55c-.64-2.89-1.3-5.75-1.83-8.68 0 0 0 0 0-.06a232.9 232.9 0 0 1 0-83.69c.09-.5.22-1 .31-1.47.46-2.47 1-4.89 1.54-7.32a141.05 141.05 0 0 0 1.16-17.8c-.17-63.79-42.54-115.55-94.76-115.76-6.5.21-17.15 2.44-24.25 3.86a131.4 131.4 0 0 1 -32 3.87c-84.1.21-152.99-79.35-158.84-180.27z"
            fill="#fff" />
    </mask>
    <linearGradient id="d" x1="-150.48" x2="181.32" xlink:href="#b" y1="474.9" y2="375.13" />
    <mask id="e" height="232.04" maskUnits="userSpaceOnUse" width="168.28" x="206.61" y="580.62">
        <path
            d="m206.61 696.64c0 64.07 53.36 116 119.19 116a121.59 121.59 0 0 0 49.09-10.27v-211.48a121.43 121.43 0 0 0 -49.09-10.27c-65.8 0-119.19 51.94-119.19 116.02z"
            fill="#fff" />
    </mask>
    <linearGradient id="f" x1="206.61" x2="444.98" xlink:href="#b" y1="115.36" y2="115.36" />
    <g clip-path="url(#a)">
        <path d="m0 0h375v812h-375z" fill="#fff" />
        <path d="m-356 813h842v-818h-842z" fill="url(#b)" fill-rule="evenodd" />
        <g mask="url(#c)">
            <path
                d="m-254.11-10.85c3.46 103.68 73.38 186.33 159.11 186.12a131.4 131.4 0 0 0 32-3.87c7.1-1.42 17.75-3.65 24.25-3.86 52.22.21 94.59 52 94.76 115.76a141.05 141.05 0 0 1 -1.22 17.8c-.54 2.43-1.08 4.85-1.54 7.32-.09.49-.22 1-.31 1.47a232.9 232.9 0 0 0 0 83.69s0 0 0 .06c.53 2.93 1.19 5.79 1.83 8.68a138.13 138.13 0 0 1 1.23 17.55c-.17 63.8-42.54 115.56-94.75 115.77-6.51-.21-17.16-2.44-24.26-3.86a131.4 131.4 0 0 0 -32-3.87c-86.95-.21-157.63 84.78-159.25 190.49h318.53a233.9 233.9 0 0 0 -3.13-35c-.35-2.14-3-20.83-3-29 0-64 42.37-115.77 94.76-115.77a100.19 100.19 0 0 1 19.17 2.37l.33.07a131.7 131.7 0 0 0 31 4.91h.6c1.51.05 3 .27 4.5.27a132.16 132.16 0 0 0 20.86-1.85c1.25-.2 2.47-.46 3.71-.7l.48-.09c.72-.13 1.44-.25 2.16-.4a130.06 130.06 0 0 0 14.18-3.83c1.12-.36 2.26-.66 3.37-1.06 2-.71 4-1.5 5.94-2.3.41-.17.8-.37 1.2-.54 3.84-1.62 7.64-3.29 11.33-5.24.93-.49 1.79-1.08 2.71-1.59a152.52 152.52 0 0 0 14.25-9c1.62-1.15 3.21-2.33 4.79-3.55 3.25-2.52 6.41-5.19 9.49-8l1.61-1.47c.48-.45 1-.88 1.46-1.34 1-.92 2-1.75 3-2.71a176.45 176.45 0 0 0 13.71-15.43c1.08-1.35 2.07-2.78 3.11-4.17q5.13-6.84 9.71-14.24c.87-1.4 1.76-2.77 2.6-4.2l.48-.83a206.7 206.7 0 0 0 12.05-24.58c.41-1 .77-1.95 1.16-2.92 1.53-3.87 3-7.75 4.35-11.75.59-1.75 1.06-3.56 1.6-5.33 1.52-5 2.89-10.07 4.07-15.25.57-2.5 1.1-5 1.59-7.55q1.08-5.65 1.89-11.42c.3-2 .63-4.05.87-6.12.19-1.64.36-3.29.52-4.95.55-5.94.83-12 .94-18.06 0-1.42.22-2.79.22-4.22 0-1.55-.21-3.05-.24-4.61-.12-5.89-.38-11.73-.91-17.48-.16-1.73-.33-3.43-.53-5.14-.25-2.13-.6-4.2-.9-6.31-.52-3.64-1.11-7.24-1.8-10.81-.54-2.81-1.12-5.58-1.75-8.34-1.09-4.73-2.35-9.35-3.72-13.93-.66-2.22-1.26-4.46-2-6.63-1.23-3.67-2.62-7.22-4-10.77-.52-1.32-1-2.65-1.56-4a206.47 206.47 0 0 0 -11.6-23.54c-.25-.44-.48-.91-.74-1.35-1-1.75-2.14-3.4-3.21-5.12q-3.93-6.24-8.24-12.08c-1.39-1.88-2.7-3.81-4.14-5.63l-.3-.33a176.9 176.9 0 0 0 -12.75-14.34c-1.46-1.47-3-2.77-4.53-4.17-.89-.84-1.81-1.64-2.72-2.45-2.58-2.3-5.19-4.54-7.88-6.65-2.17-1.7-4.37-3.33-6.62-4.91-1.53-1.07-3-2.2-4.6-3.21-.5-.33-1-.59-1.54-.92-1.62-1-3.28-1.94-4.93-2.89-1.88-1.1-3.69-2.3-5.61-3.3-3-1.59-6.2-2.9-9.34-4.25-1.09-.48-2.15-1-3.26-1.47-1.45-.58-2.89-1.17-4.36-1.71-2-.72-4-1.26-6-1.89-3.8-1.19-7.62-2.25-11.52-3.1-1.08-.23-2.15-.48-3.25-.69-1.65-.31-3.3-.59-5-.84a129.48 129.48 0 0 0 -19.45-1.7c-.09 0-.18 0-.28 0h-.1c-.36 0-.71.06-1.07.06-2.14 0-4.58.19-7.21.45a134 134 0 0 0 -13.79 1.57c-.22 0-.46 0-.68.07s-.6.17-.91.23c-3.85.7-7.67 1.48-11.42 2.51l-1.38.3a99.4 99.4 0 0 1 -19.16 2.36c-52.39 0-94.76-51.77-94.76-115.77 0-8.16 2.64-26.84 3-29a231 231 0 0 0 3-30.62z"
                fill="url(#d)" fill-rule="evenodd" />
        </g>
        <g mask="url(#e)">
            <path
                d="m206.61 696.64c0 64.07 53.36 116 119.19 116a121.59 121.59 0 0 0 49.09-10.27v-211.48a121.43 121.43 0 0 0 -49.09-10.27c-65.8 0-119.19 51.94-119.19 116.02z"
                fill="url(#f)" fill-rule="evenodd" />
        </g>
    </g>
</svg>