<svg width="20" height="20" viewBox="0 0 20 20" fill="none" xmlns="http://www.w3.org/2000/svg">
<path d="M3.33334 6.66668V5.00001C3.33334 4.55798 3.50894 4.13406 3.8215 3.8215C4.13406 3.50894 4.55798 3.33334 5.00001 3.33334H6.66668" stroke="white" stroke-width="2" stroke-linecap="round" stroke-linejoin="round"/>
<path d="M3.33334 13.3333V15C3.33334 15.442 3.50894 15.866 3.8215 16.1785C4.13406 16.4911 4.55798 16.6667 5.00001 16.6667H6.66668" stroke="white" stroke-width="2" stroke-linecap="round" stroke-linejoin="round"/>
<path d="M13.3333 3.33334H15C15.442 3.33334 15.866 3.50894 16.1785 3.8215C16.4911 4.13406 16.6667 4.55798 16.6667 5.00001V6.66668" stroke="white" stroke-width="2" stroke-linecap="round" stroke-linejoin="round"/>
<path d="M13.3333 16.6667H15C15.442 16.6667 15.866 16.4911 16.1785 16.1785C16.4911 15.866 16.6667 15.442 16.6667 15V13.3333" stroke="white" stroke-width="2" stroke-linecap="round" stroke-linejoin="round"/>
<path d="M7.5 8.33334H7.50833" stroke="white" stroke-width="2" stroke-linecap="round" stroke-linejoin="round"/>
<path d="M12.5 8.33334H12.5083" stroke="white" stroke-width="2" stroke-linecap="round" stroke-linejoin="round"/>
<path d="M7.91669 12.5C8.18825 12.7772 8.51239 12.9974 8.87013 13.1477C9.22786 13.298 9.61199 13.3754 10 13.3754C10.3881 13.3754 10.7722 13.298 11.1299 13.1477C11.4876 12.9974 11.8118 12.7772 12.0834 12.5" stroke="white" stroke-width="2" stroke-linecap="round" stroke-linejoin="round"/>
</svg>
